<svg width="337" height="337" viewBox="0 0 337 337" fill="none" xmlns="http://www.w3.org/2000/svg">
<g clip-path="url(#clip0_1_6)">
<path d="M52.6562 147.438L77.5232 89.4169C81.5711 79.9717 91.8852 73.7188 103.41 73.7188H233.59C245.115 73.7188 255.429 79.9717 259.477 89.4169L284.344 147.438M52.6562 147.438H284.344M52.6562 147.438V242.219M284.344 147.438V242.219M284.344 242.219H52.6562M284.344 242.219V263.281H263.281V242.219M52.6562 242.219V263.281H73.7188V242.219" stroke="#CD1B1B" stroke-linecap="round" stroke-linejoin="round"/>
<path d="M94.7812 200.094C100.597 200.094 105.312 195.379 105.312 189.562C105.312 183.746 100.597 179.031 94.7812 179.031C88.965 179.031 84.25 183.746 84.25 189.562C84.25 195.379 88.965 200.094 94.7812 200.094Z" stroke="black" stroke-linecap="round" stroke-linejoin="round"/>
<path d="M242.219 200.094C248.035 200.094 252.75 195.379 252.75 189.562C252.75 183.746 248.035 179.031 242.219 179.031C236.403 179.031 231.688 183.746 231.688 189.562C231.688 195.379 236.403 200.094 242.219 200.094Z" stroke="black" stroke-linecap="round" stroke-linejoin="round"/>
<path d="M242.193 29.7721C232.682 20.1671 221.367 12.5359 208.898 7.31699C196.429 2.09809 183.051 -0.605656 169.534 -0.638926C156.017 -0.672195 142.626 1.96567 130.131 7.12312C117.637 12.2806 106.284 19.856 96.7262 29.4141C87.168 38.9722 79.5926 50.3247 74.4352 62.8194C69.2777 75.3141 66.6399 88.7046 66.6731 102.222C66.7064 115.739 69.4102 129.116 74.6291 141.586C79.848 154.055 87.4791 165.37 97.0842 174.881C106.595 184.486 117.91 192.117 130.379 197.336C142.848 202.555 156.226 205.259 169.743 205.292C183.26 205.325 196.651 202.687 209.146 197.53C221.64 192.372 232.993 184.797 242.551 175.239C252.109 165.681 259.684 154.328 264.842 141.833C269.999 129.339 272.637 115.948 272.604 102.431C272.571 88.9138 269.867 75.5364 264.648 63.0673C259.429 50.5982 251.798 39.2831 242.193 29.7721ZM81.6883 102.326C81.6849 94.5424 82.717 86.7926 84.7574 79.2808C88.1197 86.5183 93.0028 92.771 96.3238 100.196C100.616 109.743 112.141 107.095 117.23 115.459C121.747 122.885 116.923 132.275 120.304 140.044C122.759 145.683 128.549 146.915 132.544 151.038C136.625 155.197 136.538 160.896 137.161 166.319C137.864 172.692 139.004 179.008 140.574 185.224C140.574 185.27 140.574 185.32 140.61 185.366C106.333 173.328 81.6883 140.653 81.6883 102.326ZM169.639 190.277C164.727 190.275 159.824 189.865 154.98 189.049C155.031 187.808 155.053 186.649 155.177 185.842C156.29 178.559 159.937 171.436 164.856 165.985C169.716 160.607 176.377 156.97 180.481 150.869C184.503 144.914 185.708 136.897 184.05 129.939C181.608 119.66 167.641 116.229 160.111 110.654C155.782 107.448 151.929 102.491 146.245 102.088C143.625 101.905 141.43 102.468 138.833 101.8C136.451 101.181 134.582 99.8986 132.044 100.233C127.303 100.856 124.312 105.922 119.218 105.235C114.386 104.589 109.406 98.9321 108.307 94.3285C106.896 88.4102 111.578 86.4908 116.594 85.964C118.687 85.7442 121.037 85.506 123.048 86.2755C125.695 87.2558 126.946 89.8485 129.323 91.1586C133.781 93.6047 134.683 89.6973 134 85.7396C132.979 79.8121 131.788 77.3981 137.074 73.3166C140.739 70.5041 143.872 68.4702 143.286 63.4177C142.937 60.4493 141.311 59.1072 142.827 56.1526C143.977 53.9035 147.133 51.8742 149.19 50.532C154.499 47.069 171.933 47.3255 164.81 37.6327C162.717 34.788 158.855 29.7034 155.191 29.0072C150.61 28.1414 148.576 33.2535 145.384 35.5072C142.085 37.8388 135.663 40.4865 132.36 36.8814C127.917 32.0304 135.306 30.4409 136.941 27.0512C137.697 25.4708 136.941 23.2767 135.668 21.2107C137.32 20.5145 138.999 19.8686 140.707 19.2731C141.776 20.0633 143.046 20.5392 144.371 20.6473C147.436 20.8489 150.326 19.1906 153.001 21.2794C155.97 23.5698 158.109 26.4648 162.048 27.1794C165.859 27.8711 169.895 25.6495 170.839 21.7467C171.411 19.3739 170.839 16.8682 170.289 14.4175C187.421 14.5161 204.146 19.6468 218.387 29.1721C217.471 28.8239 216.376 28.8651 215.024 29.4927C212.244 30.7845 208.305 34.0734 207.979 37.3349C207.608 41.0362 213.069 41.5584 215.661 41.5584C219.555 41.5584 223.499 39.8177 222.244 35.3194C221.699 33.368 220.957 31.3388 219.761 30.1111C222.635 32.1051 225.388 34.268 228.006 36.5883C227.965 36.6295 227.924 36.6661 227.883 36.712C225.244 39.4604 222.18 41.6362 220.375 44.9802C219.101 47.3347 217.668 48.4524 215.089 49.0616C213.669 49.396 212.047 49.5197 210.856 50.4725C207.54 53.0835 209.427 59.3591 212.569 61.2418C216.541 63.6192 222.432 62.5015 225.427 59.1072C227.768 56.4504 229.147 51.8376 233.357 51.8421C235.21 51.8383 236.99 52.5639 238.313 53.8622C240.054 55.667 239.71 57.3528 240.081 59.6065C240.736 63.61 244.268 61.4388 246.416 59.4187C247.982 62.2056 249.395 65.0759 250.649 68.0167C248.285 71.4202 246.407 75.1306 240.722 71.1637C237.319 68.7863 235.226 65.337 230.952 64.2651C227.218 63.3489 223.393 64.3017 219.706 64.9385C215.515 65.6668 210.545 65.9874 207.365 69.1619C204.292 72.2218 202.666 76.317 199.395 79.3907C193.069 85.3456 190.398 91.8457 194.494 100.265C198.433 108.359 206.674 112.752 215.565 112.175C224.3 111.593 233.375 106.527 233.123 119.22C233.031 123.714 233.97 126.824 235.349 130.997C236.627 134.845 236.54 138.574 236.833 142.545C237.112 147.196 237.839 151.809 239.005 156.32C230.794 166.891 220.276 175.446 208.254 181.331C196.232 187.216 183.024 190.276 169.639 190.277Z" fill="#0AB0EC"/>
<path d="M172.969 215.812C172.969 217.958 172.573 219.896 171.781 221.625C171.01 223.354 169.854 224.729 168.312 225.75C166.792 226.75 164.896 227.25 162.625 227.25C162.083 227.25 161.531 227.229 160.969 227.188C160.427 227.146 159.885 227.125 159.344 227.125C158.948 227.125 158.448 227.229 157.844 227.438C157.26 227.625 156.76 227.771 156.344 227.875C154.99 228.271 153.688 228.469 152.438 228.469C151.229 228.469 150.333 228.323 149.75 228.031C149.188 227.719 148.906 226.906 148.906 225.594C148.906 224.927 148.958 224.26 149.062 223.594C149.167 222.927 149.292 222.271 149.438 221.625L151.875 210.156L148.656 210.562L142.719 226.5C142.01 228.417 141.104 229.74 140 230.469C138.896 231.177 137.323 231.531 135.281 231.531C134.656 231.531 134.031 231.51 133.406 231.469C132.802 231.427 132.188 231.406 131.562 231.406C130.729 231.406 129.938 231.594 129.188 231.969C128.458 232.323 127.677 232.688 126.844 233.062C126.01 233.417 125.031 233.594 123.906 233.594C122.073 233.594 120.625 232.979 119.562 231.75C118.521 230.521 118 229.021 118 227.25C118 225.667 118.344 224.073 119.031 222.469C119.719 220.844 120.583 219.312 121.625 217.875C122.688 216.438 123.771 215.198 124.875 214.156C126.312 212.781 127.802 211.781 129.344 211.156C130.906 210.51 132.531 210.083 134.219 209.875C135.927 209.646 137.729 209.49 139.625 209.406C141.25 209.323 142.854 209.146 144.438 208.875C146.021 208.583 147.615 208.333 149.219 208.125C150.948 207.896 152.677 207.75 154.406 207.688C156.135 207.604 157.865 207.552 159.594 207.531L160.188 208.438C161.021 208.104 161.958 207.75 163 207.375C164.062 206.979 165.042 206.781 165.938 206.781C167.604 206.781 168.948 207.229 169.969 208.125C171.01 209.021 171.771 210.167 172.25 211.562C172.729 212.938 172.969 214.354 172.969 215.812ZM163.625 216.062C163.625 215.354 163.583 214.604 163.5 213.812C163.417 213.021 163.177 212.344 162.781 211.781C162.406 211.219 161.75 210.938 160.812 210.938C160.646 210.938 160.469 210.948 160.281 210.969C160.094 210.99 159.917 211.021 159.75 211.062L158 220.969C157.958 221.24 157.917 221.51 157.875 221.781C157.833 222.052 157.812 222.323 157.812 222.594C157.812 223.99 158.479 224.688 159.812 224.688C160.625 224.688 161.281 224.354 161.781 223.688C162.302 223.021 162.688 222.208 162.938 221.25C163.208 220.271 163.385 219.312 163.469 218.375C163.573 217.417 163.625 216.646 163.625 216.062ZM139.438 212.219C138.938 211.969 138.448 211.844 137.969 211.844C136.156 211.844 134.615 212.417 133.344 213.562C132.073 214.688 131.042 216.062 130.25 217.688C129.479 219.312 128.885 220.885 128.469 222.406C128.323 223.01 128.177 223.646 128.031 224.312C127.885 224.979 127.812 225.635 127.812 226.281C127.812 226.969 128.031 227.646 128.469 228.312C128.906 228.979 129.51 229.312 130.281 229.312C130.948 229.312 131.542 229.062 132.062 228.562C132.583 228.062 133.021 227.479 133.375 226.812C133.75 226.146 134.042 225.552 134.25 225.031L139.438 212.219ZM208.875 230.906C208.875 233.302 208.271 235.042 207.062 236.125C205.875 237.188 204.25 238.094 202.188 238.844C201.25 239.177 200.302 239.5 199.344 239.812C198.406 240.104 197.458 240.396 196.5 240.688C195 241.146 193.271 241.646 191.312 242.188C189.375 242.729 187.625 243 186.062 243C183.729 243 181.75 242.333 180.125 241C178.5 239.646 177.688 237.75 177.688 235.312C177.688 233.354 178.167 231.5 179.125 229.75C180.083 228 181.312 226.344 182.812 224.781C184.333 223.219 185.938 221.729 187.625 220.312C189.333 218.875 190.938 217.51 192.438 216.219C193.958 214.906 195.198 213.635 196.156 212.406C197.115 211.177 197.594 209.979 197.594 208.812C197.594 208.333 197.427 207.896 197.094 207.5C196.76 207.104 196.354 206.865 195.875 206.781V205.812L202.469 204.469C202.885 204.385 203.271 204.323 203.625 204.281C204 204.24 204.406 204.219 204.844 204.219C205.531 204.219 206.021 204.5 206.312 205.062C206.604 205.625 206.75 206.198 206.75 206.781C206.75 208.594 206.281 210.26 205.344 211.781C204.427 213.281 203.24 214.719 201.781 216.094C200.323 217.469 198.771 218.833 197.125 220.188C195.479 221.542 193.927 222.958 192.469 224.438C191.01 225.917 189.812 227.521 188.875 229.25C187.958 230.958 187.5 232.875 187.5 235C187.5 236.688 187.958 237.812 188.875 238.375C189.792 238.938 191.01 239.219 192.531 239.219C194.552 239.219 196.26 238.562 197.656 237.25C199.073 235.917 199.781 234.229 199.781 232.188C199.781 231.708 199.656 231.271 199.406 230.875C199.177 230.458 198.792 230.229 198.25 230.188V229.375C199.729 228.688 201.167 228.094 202.562 227.594C203.979 227.073 205.01 226.812 205.656 226.812C206.948 226.812 207.802 227.219 208.219 228.031C208.656 228.823 208.875 229.781 208.875 230.906Z" fill="#E90E0E"/>
</g>
<defs>
<clipPath id="clip0_1_6">
<rect width="337" height="337" fill="white"/>
</clipPath>
</defs>
</svg>
